<?xml version="1.0" encoding="utf-8"?>
<!-- Generator: Adobe Illustrator 17.0.0, SVG Export Plug-In . SVG Version: 6.00 Build 0)  -->
<!DOCTYPE svg PUBLIC "-//W3C//DTD SVG 1.1//EN" "http://www.w3.org/Graphics/SVG/1.1/DTD/svg11.dtd">
<svg version="1.1" id="Layer_1" xmlns="http://www.w3.org/2000/svg" xmlns:xlink="http://www.w3.org/1999/xlink" x="0px" y="0px"
	 width="28px" height="35.381px" viewBox="1.333 0 28 35.381" enable-background="new 1.333 0 28 35.381" xml:space="preserve">
<image overflow="visible" enable-background="new    " width="128" height="128" xlink:href="36B000B0.png"  transform="matrix(0.9999 0 0 0.9999 82.2083 -57.375)">
</image>
<ellipse fill="#FFFFFF" stroke="#000000" stroke-miterlimit="10" cx="143.875" cy="14.958" rx="0" ry="0.333"/>
<path fill="#FFFFFF" stroke="#000000" stroke-miterlimit="10" d="M87.875-27.375c0,1.473-1.194,2.667-2.667,2.667l0,0
	c-1.473,0-2.667-1.194-2.667-2.667v-11.333c0-1.473,1.194-2.667,2.667-2.667l0,0c1.473,0,2.667,1.194,2.667,2.667V-27.375z"/>
<path fill="none" stroke="#000000" stroke-width="1.5" stroke-miterlimit="10" d="M24.37,15.078c-0.026,0-0.051-0.001-0.078-0.001
	H6.402"/>
<line fill="none" stroke="#000000" stroke-width="1.5" stroke-miterlimit="10" x1="24.37" y1="14.766" x2="24.37" y2="15.049"/>
<path fill="none" stroke="#000000" stroke-width="1.5" stroke-miterlimit="10" d="M24.37,14.766V9.293
	c0-4.638-4.023-8.398-8.984-8.398s-8.984,3.76-8.984,8.398v1.608"/>
<path fill="none" stroke="#000000" stroke-width="1.5" stroke-miterlimit="10" d="M24.37,9.293c0-4.638-4.023-8.398-8.984-8.398"/>
<path fill="none" stroke="#000000" stroke-width="1.5" stroke-miterlimit="10" d="M6.402,14.766l-0.027,0.309
	c-2.232,0-4.042,1.526-4.042,3.408V30.98c0,1.882,1.809,3.409,4.042,3.409h17.917c2.232,0,4.042-1.526,4.042-3.409V18.484
	c0-1.86-1.768-3.369-3.964-3.405"/>
<path fill="none" stroke="#000000" stroke-width="1.5" stroke-miterlimit="10" d="M6.402,14.766V9.293
	c0-4.638,4.023-8.398,8.984-8.398s8.984,3.76,8.984,8.398v1.608"/>
<path fill="none" stroke="#000000" stroke-width="1.5" stroke-miterlimit="10" d="M6.402,9.293c0-4.638,4.023-8.398,8.984-8.398"/>
</svg>
