<?xml version="1.0" encoding="utf-8"?>
<!-- Generator: Adobe Illustrator 24.3.0, SVG Export Plug-In . SVG Version: 6.00 Build 0)  -->
<svg version="1.1" id="Layer_1" xmlns="http://www.w3.org/2000/svg" xmlns:xlink="http://www.w3.org/1999/xlink" x="0px" y="0px"
	 viewBox="0 0 34.2 34.2" style="enable-background:new 0 0 34.2 34.2;" xml:space="preserve">
<style type="text/css">
	.st0{fill:none;stroke:#000000;stroke-width:3;stroke-miterlimit:10;}
	.st1{fill:none;stroke:#F00200;stroke-width:0.25;stroke-miterlimit:10;}
	.st2{fill:none;stroke:#808080;stroke-width:2;stroke-miterlimit:10;}
	.st3{opacity:0.2;fill:none;stroke:#808080;stroke-miterlimit:10;enable-background:new    ;}
</style>
<path class="st0" d="M302.6-10.9h0.3c2.5,0,4.2-2.6,4.2-5.3v-17c0-2.7-1.7-3.7-4.2-3.7h-26.3c-2.5,0-5.5,1-5.5,3.7v17
	c0,2.7,3,5.3,5.5,5.3h21"/>
<image style="overflow:visible;enable-background:new    ;" width="434" height="416" xlink:href="EAB7E885.jpg"  transform="matrix(0.1074 0 0 0.1074 129.5591 11.6228)">
</image>
<path class="st1" d="M66.2,17.9"/>
<g>
	<path class="st2" d="M54.1-9.4v-11.5c0-1,0.9-1.9,1.9-1.9h13.6l1.2,4.9h18.5c1.1,0,1.9,0.8,1.9,1.9V6.3c0,1-0.9,1.9-1.9,1.9H56
		c-1.1,0-1.9-0.8-1.9-1.9v-19.1"/>
	<line class="st3" x1="71.1" y1="-17.4" x2="54.5" y2="-17.4"/>
</g>
<circle cx="12.5" cy="13.4" r="2.4"/>
<circle cx="21.5" cy="13.4" r="2.4"/>
<circle cx="21.5" cy="20.4" r="2.4"/>
<circle cx="12.5" cy="20.4" r="2.4"/>
<circle cx="6.5" cy="20.4" r="0.8"/>
<circle cx="26.5" cy="20.4" r="0.8"/>
<circle cx="26.5" cy="13.4" r="0.8"/>
<circle cx="6.5" cy="13.4" r="0.8"/>
<circle cx="13.5" cy="7.4" r="0.7"/>
<circle cx="13.5" cy="27.4" r="0.7"/>
<circle cx="20.5" cy="27.4" r="0.7"/>
<circle cx="20.5" cy="7.4" r="0.7"/>
<circle class="st0" cx="17.1" cy="17.1" r="15"/>
</svg>
