<?xml version="1.0" encoding="utf-8"?>
<!-- Generator: Adobe Illustrator 17.0.0, SVG Export Plug-In . SVG Version: 6.00 Build 0)  -->
<!DOCTYPE svg PUBLIC "-//W3C//DTD SVG 1.1//EN" "http://www.w3.org/Graphics/SVG/1.1/DTD/svg11.dtd">
<svg version="1.1" id="Layer_1" xmlns="http://www.w3.org/2000/svg" xmlns:xlink="http://www.w3.org/1999/xlink" x="0px" y="0px"
	 width="29.3px" height="29.3px" viewBox="0 0 29.3 29.3" enable-background="new 0 0 29.3 29.3" xml:space="preserve">
<g>
	<path fill="none" stroke="#000000" stroke-width="1.5" stroke-miterlimit="10" d="M8.067,60.65c9.037,0,18.021,0,27,0
		c0-9.029,0-18.012,0-27c-9.02,0-18.002,0-27,0C8.067,42.666,8.067,51.637,8.067,60.65z"/>
	<path fill="none" stroke="#000000" stroke-width="1.5" stroke-miterlimit="10" d="M8.067,60.65c0-9.013,0-17.983,0-27
		c8.998,0,17.98,0,27,0c0,8.987,0,17.971,0,27C26.087,60.65,17.106,60.65,8.067,60.65z"/>
</g>
<g>
	<path fill="none" stroke="#000000" stroke-miterlimit="10" d="M45.039,29.101c-2.984,0-5.967,0-8.951,0c0-6.444,0-12.887,0-19.331
		c0.087-0.009,0.174-0.025,0.261-0.025c2.806-0.001,5.613-0.001,8.419,0c0.085,0,0.17,0.01,0.279,0.017c0,0.123,0,0.226,0,0.33
		c0,6.239,0,12.479,0,18.718C45.047,28.908,45.042,29.004,45.039,29.101z"/>
	<path fill="none" stroke="#000000" stroke-miterlimit="10" d="M57.273,9.77c0,6.444,0,12.887,0,19.331c-2.984,0-5.967,0-8.951,0
		c-0.003-0.044-0.008-0.088-0.008-0.132c0-6.328-0.001-12.655,0-18.983c0-0.076,0.011-0.152,0.017-0.232
		c0.095-0.004,0.165-0.01,0.236-0.01c2.824,0,5.648-0.001,8.472,0.001C57.117,9.745,57.195,9.762,57.273,9.77z"/>
	<path fill="none" stroke="#000000" stroke-miterlimit="10" d="M57.273,9.77c-0.078-0.009-0.156-0.025-0.234-0.025
		c-2.824-0.001-5.648-0.001-8.472-0.001c-0.07,0-0.14,0.006-0.236,0.01c-0.006,0.08-0.017,0.156-0.017,0.232
		c-0.001,6.328-0.001,12.655,0,18.983c0,0.044,0.005,0.088,0.008,0.132c-1.095,0-2.189,0-3.284,0
		c0.003-0.097,0.008-0.194,0.009-0.291c0-6.239,0-12.479,0-18.718c0-0.104,0-0.208,0-0.33c-0.109-0.007-0.194-0.017-0.279-0.017
		c-2.806-0.001-5.613-0.001-8.419,0c-0.087,0-0.174,0.016-0.261,0.025c0-1.095,0-2.189,0-3.284c7.062,0,14.123,0,21.185,0
		C57.273,7.581,57.273,8.676,57.273,9.77z"/>
	<path fill="none" stroke="#000000" stroke-miterlimit="10" d="M57.273,6.487c-7.062,0-14.123,0-21.185,0c0-0.071,0-0.141,0-0.212
		c7.062,0,14.123,0,21.185,0C57.273,6.345,57.273,6.416,57.273,6.487z"/>
</g>
<path fill="none" stroke="#000000" stroke-miterlimit="10" d="M20.199,66.817c0,2.761-2.239,5-5,5h-20c-2.761,0-5-2.239-5-5v-20
	c0-2.761,2.239-5,5-5h20c2.761,0,5,2.239,5,5V66.817z"/>
<path fill="none" stroke="#000000" stroke-miterlimit="10" d="M-10.85,35.962c0,1.105-0.895,2-2,2h-16c-1.105,0-2-0.895-2-2v-16
	c0-1.105,0.895-2,2-2h16c1.105,0,2,0.895,2,2V35.962z"/>
<path fill="none" stroke="#000000" stroke-width="0.6575" stroke-miterlimit="10" d="M40.119,91.22c0,0.726-0.589,1.315-1.315,1.315
	H24.997c-0.726,0-1.315-0.589-1.315-1.315V77.413c0-0.726,0.589-1.315,1.315-1.315h13.807c0.726,0,1.315,0.589,1.315,1.315V91.22z"
	/>
<polyline fill="none" stroke="#000000" stroke-width="1.4295" stroke-miterlimit="10" points="15.985,21.765 18.714,27.459 
	21.453,21.687 "/>
<path fill="none" stroke="#000000" stroke-width="1.4295" stroke-miterlimit="10" d="M20.864,22.1l3.87-0.016
	c2.01,0,3.64-1.644,3.64-3.673V5.099c0-2.028-1.63-3.673-3.64-3.673H4.566c-2.01,0-3.64,1.644-3.64,3.673v13.313
	c0,2.028,1.63,3.673,3.64,3.673h11.979"/>
<line fill="none" stroke="#000000" stroke-width="1.4295" stroke-miterlimit="10" x1="3.871" y1="6.491" x2="24.015" y2="6.491"/>
<line fill="none" stroke="#000000" stroke-width="1.4295" stroke-miterlimit="10" x1="4.107" y1="10.791" x2="24.251" y2="10.791"/>
<line fill="none" stroke="#000000" stroke-width="1.4295" stroke-miterlimit="10" x1="4.501" y1="15.587" x2="13.336" y2="15.606"/>
</svg>
