<?xml version="1.0" encoding="utf-8"?>
<!-- Generator: Adobe Illustrator 17.0.0, SVG Export Plug-In . SVG Version: 6.00 Build 0)  -->
<!DOCTYPE svg PUBLIC "-//W3C//DTD SVG 1.1//EN" "http://www.w3.org/Graphics/SVG/1.1/DTD/svg11.dtd">
<svg version="1.1" id="Layer_1" xmlns="http://www.w3.org/2000/svg" xmlns:xlink="http://www.w3.org/1999/xlink" x="0px" y="0px"
	 width="28.719px" height="28.792px" viewBox="0 0 28.719 28.792" enable-background="new 0 0 28.719 28.792" xml:space="preserve">
<g id="Layer_2">
</g>
<path d="M28.59,9.14c-0.171,0.154-0.325,0.328-0.515,0.46c-1.172,0.817-2.499,1.428-3.83,2.029c-2.081,0.938-4.225,1.75-6.426,2.458
	c-0.56,0.179-0.648,0.153-0.88-0.285c-0.153-0.291-0.305-0.583-0.449-0.876c-0.161-0.328-0.12-0.445,0.272-0.616
	c1.167-0.51,2.328-1.035,3.515-1.507c1.808-0.718,3.646-1.377,5.555-1.871c0.562-0.145,1.14-0.245,1.714-0.356
	c0.187-0.035,0.381-0.048,0.572-0.048C28.64,8.533,28.758,8.7,28.59,9.14z"/>
<path d="M10.908,15.276c0.345-0.506,0.661-0.943,1.168-1.258c0.466-0.291,0.98-0.419,1.544-0.336
	c0.369,0.055,0.691-0.01,1.004-0.192c0.377-0.219,0.773-0.416,1.166-0.617c0.348-0.176,0.443-0.149,0.592,0.151
	c0.133,0.271,0.266,0.541,0.396,0.814c0.156,0.325,0.13,0.376-0.285,0.496c-0.375,0.108-0.752,0.214-1.132,0.308
	c-0.411,0.101-0.738,0.276-0.93,0.613c-0.196,0.347-0.542,0.499-0.981,0.515c-0.403,0.014-0.806,0.026-1.208,0.038
	c-0.467,0.014-0.891,0.135-1.272,0.381c-0.07,0.045-0.173,0.05-0.263,0.073c-0.008-0.078-0.042-0.159-0.022-0.233
	C10.757,15.756,10.845,15.486,10.908,15.276z"/>
<path fill="none" stroke="#000000" stroke-width="1.5146" stroke-miterlimit="10" d="M19.5,16.032
	c0.239,1.222,0.826,2.274,1.544,3.265c0.642,0.886,1.283,1.776,1.789,2.75c0.319,0.614,0.483,1.257,0.343,1.952
	c-0.314,1.541-1.333,2.449-2.743,2.951c-2.678,0.955-5.379,0.79-8.035-0.066c-2.911-0.936-5.281-2.729-7.36-4.928
	c-3.118-3.299-4.717-7.113-3.957-11.721c0.621-3.762,2.557-6.541,6.097-8.101c3.581-1.577,6.888-1.226,9.841,1.465
	c0.626,0.572,1.096,1.269,1.586,1.951c0,0,1.324,1.596,1.105,4.57s-0.218,2.974-0.218,2.974s-0.314,1.717-0.048,2.707
	c0.266,0.991,0.266,0.992,0.266,0.992"/>
<path fill="none" stroke="#000000" stroke-width="1.0098" stroke-miterlimit="10" d="M11.623,11.092"/>
<ellipse cx="12.023" cy="7" rx="1.451" ry="1.497"/>
<ellipse cx="5.552" cy="14.701" rx="1.374" ry="1.418"/>
<ellipse cx="15.971" cy="22.209" rx="1.382" ry="1.426"/>
</svg>
