<?xml version="1.0" encoding="utf-8"?>
<!-- Generator: Adobe Illustrator 24.3.0, SVG Export Plug-In . SVG Version: 6.00 Build 0)  -->
<svg version="1.1" id="Layer_1" xmlns="http://www.w3.org/2000/svg" xmlns:xlink="http://www.w3.org/1999/xlink" x="0px" y="0px"
	 viewBox="0 0 32.3 27.6" style="enable-background:new 0 0 32.3 27.6;" xml:space="preserve">
<style type="text/css">
	.st0{fill:none;}
	.st1{fill:none;stroke:#000000;stroke-width:0.25;stroke-miterlimit:10;}
	.st2{opacity:0.14;fill:none;stroke:#000000;stroke-width:0.25;stroke-miterlimit:10;enable-background:new    ;}
	.st3{fill:none;stroke:#FFFFFF;stroke-width:2;stroke-miterlimit:10;}
	.st4{fill:none;stroke:#000000;stroke-width:2;stroke-linecap:round;stroke-miterlimit:10;}
</style>
<polyline class="st0" points="36.2,-20.3 37.3,-22.1 29.7,-22.1 30.8,-20.2 "/>
<polyline class="st0" points="36.2,-20.5 33.5,-15.9 30.8,-20.5 "/>
<line class="st0" x1="36.5" y1="-20.1" x2="30.5" y2="-20.1"/>
<path class="st1" d="M700.4,54.9v-2.8c0-0.2,0.2-0.4,0.4-0.4h3.1l0.3,1.2h4.3c0.2,0,0.4,0.2,0.4,0.4v5.4c0,0.2-0.2,0.4-0.4,0.4h-7.7
	c-0.2,0-0.4-0.2-0.4-0.4v-4.6"/>
<path class="st1" d="M666.6,55.4v-3c0-0.3,0.2-0.5,0.5-0.5h3.4l0.3,1.8h4.7c0.3,0,0.5,0.2,0.5,0.4v4.5c0,0.2-0.2,0.4-0.5,0.4h-8.4
	c-0.3,0-0.5-0.2-0.5-0.4v-3.9"/>
<path class="st1" d="M649.4,54.7v-2.6c0-0.2,0.2-0.4,0.4-0.4h3l0.2,1.5h4.1c0.2,0,0.4,0.2,0.4,0.4v5.1c0,0.2-0.2,0.4-0.4,0.4h-7.3
	c-0.2,0-0.4-0.2-0.4-0.4v-4.4"/>
<path class="st1" d="M730.6,55.7v-3c0-0.3,0.2-0.5,0.5-0.5h3.4l0.3,1.8h4.7c0.3,0,0.5,0.2,0.5,0.5v5.9c0,0.3-0.2,0.5-0.5,0.5h-8.4
	c-0.3,0-0.5-0.2-0.5-0.5v-5"/>
<path class="st1" d="M682.6,54.9v-2.8c0-0.2,0.2-0.4,0.4-0.4h2.2l1.2,1.2h4.3c0.2,0,0.4,0.2,0.4,0.4v5.4c0,0.2-0.2,0.4-0.4,0.4H683
	c-0.2,0-0.4-0.2-0.4-0.4v-4.6"/>
<line class="st0" x1="704.2" y1="52.9" x2="700.4" y2="52.9"/>
<path class="st1" d="M715.5,56v-2.8c0-0.2,0.2-0.5,0.5-0.5h3.2l0.3,1.2h4.3c0.2,0,0.5,0.2,0.5,0.5v5.4c0,0.2-0.2,0.5-0.5,0.5H716
	c-0.2,0-0.5-0.2-0.5-0.5v-4.6"/>
<line class="st2" x1="719.4" y1="53.9" x2="715.5" y2="53.9"/>
<g>
	<path class="st3" d="M126.3,31.8c0,1.1-0.9,2-2,2H90.8c-1.1,0-2-0.9-2-2V10.2c0-1.1,0.9-2,2-2h33.6c1.1,0,2,0.9,2,2V31.8z"/>
	<path class="st3" d="M104.1,3.7h-9.6c-1.2,0-2.2,1-2.2,2.2v2.3"/>
	<line class="st3" x1="103.5" y1="3.4" x2="108.4" y2="8.2"/>
</g>
<g>
	<line class="st4" x1="16.2" y1="1.8" x2="16.2" y2="25.9"/>
	<line class="st4" x1="4.1" y1="13.8" x2="28.2" y2="13.8"/>
</g>
</svg>
