<?xml version="1.0" encoding="utf-8"?>
<!-- Generator: Adobe Illustrator 24.3.0, SVG Export Plug-In . SVG Version: 6.00 Build 0)  -->
<svg version="1.1" id="Layer_1" xmlns="http://www.w3.org/2000/svg" xmlns:xlink="http://www.w3.org/1999/xlink" x="0px" y="0px"
	 viewBox="0 0 40 34.2" style="enable-background:new 0 0 40 34.2;" xml:space="preserve">
<style type="text/css">
	.st0{fill:none;}
	.st1{fill:none;stroke:#F00200;stroke-width:0.25;stroke-miterlimit:10;}
	.st2{fill:none;stroke:#000000;stroke-width:0.25;stroke-miterlimit:10;}
	.st3{opacity:0.14;fill:none;stroke:#000000;stroke-width:0.25;stroke-miterlimit:10;enable-background:new    ;}
	.st4{fill:none;stroke:#FFFFFF;stroke-width:1.4709;stroke-miterlimit:10;}
	.st5{fill:none;stroke:#000000;stroke-width:2;stroke-miterlimit:10;}
	.st6{fill:none;stroke:#808080;stroke-width:2;stroke-miterlimit:10;}
	.st7{opacity:0.2;fill:none;stroke:#808080;stroke-miterlimit:10;enable-background:new    ;}
</style>
<polyline class="st0" points="40,-17 41.1,-18.8 33.5,-18.8 34.6,-16.9 "/>
<polyline class="st0" points="40,-17.2 37.3,-12.6 34.6,-17.2 "/>
<line class="st0" x1="40.3" y1="-16.8" x2="34.3" y2="-16.8"/>
<path class="st1" d="M13.4,42"/>
<path class="st2" d="M704.2,58.2v-2.8c0-0.2,0.2-0.4,0.4-0.4h3.1l0.3,1.2h4.3c0.2,0,0.4,0.2,0.4,0.4V62c0,0.2-0.2,0.4-0.4,0.4h-7.7
	c-0.2,0-0.4-0.2-0.4-0.4v-4.6"/>
<path class="st2" d="M670.4,58.7v-3c0-0.3,0.2-0.5,0.5-0.5h3.4l0.3,1.8h4.7c0.3,0,0.5,0.2,0.5,0.4v4.5c0,0.2-0.2,0.4-0.5,0.4h-8.4
	c-0.3,0-0.5-0.2-0.5-0.4V58"/>
<path class="st2" d="M653.2,58v-2.6c0-0.2,0.2-0.4,0.4-0.4h3l0.2,1.5h4.1c0.2,0,0.4,0.2,0.4,0.4V62c0,0.2-0.2,0.4-0.4,0.4h-7.3
	c-0.2,0-0.4-0.2-0.4-0.4v-4.4"/>
<path class="st2" d="M734.4,59v-3c0-0.3,0.2-0.5,0.5-0.5h3.4l0.3,1.8h4.7c0.3,0,0.5,0.2,0.5,0.5v5.9c0,0.3-0.2,0.5-0.5,0.5h-8.4
	c-0.3,0-0.5-0.2-0.5-0.5v-5"/>
<path class="st2" d="M686.4,58.2v-2.8c0-0.2,0.2-0.4,0.4-0.4h2.2l1.2,1.2h4.3c0.2,0,0.4,0.2,0.4,0.4V62c0,0.2-0.2,0.4-0.4,0.4h-7.7
	c-0.2,0-0.4-0.2-0.4-0.4v-4.6"/>
<line class="st0" x1="708" y1="56.2" x2="704.2" y2="56.2"/>
<path class="st2" d="M719.3,59.3v-2.8c0-0.2,0.2-0.5,0.5-0.5h3.2l0.3,1.2h4.3c0.2,0,0.5,0.2,0.5,0.5v5.4c0,0.2-0.2,0.5-0.5,0.5h-7.8
	c-0.2,0-0.5-0.2-0.5-0.5v-4.6"/>
<line class="st3" x1="723.2" y1="57.2" x2="719.3" y2="57.2"/>
<g>
	<path class="st4" d="M65.8,91.5c0,1.2-1,2.1-2.1,2.1H26.9c-1.2,0-2.1-1-2.1-2.1V67.9c0-1.2,1-2.1,2.1-2.1h36.7c1.2,0,2.1,1,2.1,2.1
		V91.5z"/>
	<path class="st4" d="M41.2,60.8H31c-1.3,0-2.4,1.1-2.4,2.4v2.5"/>
	<line class="st4" x1="41.2" y1="60.8" x2="46.2" y2="65.7"/>
</g>
<g>
	<path class="st5" d="M38.8,30.3c0,1.1-0.9,2-2,2H3.2c-1.1,0-2-0.9-2-2V8.6c0-1.1,0.9-2,2-2h33.6c1.1,0,2,0.9,2,2V30.3z"/>
	<path class="st5" d="M16.5,2.1H6.9c-1.2,0-2.2,1-2.2,2.2v2.3"/>
	<line class="st5" x1="16" y1="1.8" x2="20.8" y2="6.6"/>
</g>
<g>
	<path class="st6" d="M64,15V3.5c0-1,0.9-1.9,1.9-1.9h13.6l1.2,4.9h18.5c1.1,0,1.9,0.8,1.9,1.9v22.3c0,1-0.9,1.9-1.9,1.9H65.9
		c-1.1,0-1.9-0.8-1.9-1.9V11.6"/>
	<line class="st7" x1="81" y1="7" x2="64.4" y2="7"/>
</g>
</svg>
