<?xml version="1.0" encoding="utf-8"?>
<!-- Generator: Adobe Illustrator 17.0.0, SVG Export Plug-In . SVG Version: 6.00 Build 0)  -->
<!DOCTYPE svg PUBLIC "-//W3C//DTD SVG 1.1//EN" "http://www.w3.org/Graphics/SVG/1.1/DTD/svg11.dtd">
<svg version="1.1" id="Layer_1" xmlns="http://www.w3.org/2000/svg" xmlns:xlink="http://www.w3.org/1999/xlink" x="0px" y="0px"
	 width="22.625px" height="28.792px" viewBox="0 0 22.625 28.792" enable-background="new 0 0 22.625 28.792" xml:space="preserve">
<g id="Layer_2">
</g>
<g>
	<path fill="none" stroke="#000000" stroke-width="1.5" stroke-miterlimit="10" d="M18.636,12.353c-0.021,0-0.041-0.001-0.063-0.001
		h-14.5"/>
	<path fill="none" stroke="#000000" stroke-width="1.5" stroke-miterlimit="10" d="M18.636,12.1V7.664
		c0-3.759-3.261-6.807-7.282-6.807S4.074,3.904,4.074,7.664v1.303"/>
	<path fill="none" stroke="#000000" stroke-width="1.5" stroke-miterlimit="10" d="M4.137,12.169l-0.022,0.248
		c-1.794,0-3.248,1.226-3.248,2.738v10.041c0,1.512,1.453,2.739,3.248,2.739H18.51c1.793,0,3.248-1.226,3.248-2.739v-10.04
		c0-1.494-1.421-2.707-3.185-2.736"/>
	<path fill="none" stroke="#000000" stroke-width="1.5" stroke-miterlimit="10" d="M4.074,12.1V7.664
		c0-3.759,3.261-6.807,7.282-6.807s7.282,3.048,7.282,6.807v1.303"/>
</g>
</svg>
