<?xml version="1.0" encoding="utf-8"?>
<!-- Generator: Adobe Illustrator 17.0.0, SVG Export Plug-In . SVG Version: 6.00 Build 0)  -->
<!DOCTYPE svg PUBLIC "-//W3C//DTD SVG 1.1//EN" "http://www.w3.org/Graphics/SVG/1.1/DTD/svg11.dtd">
<svg version="1.1" id="Layer_1" xmlns="http://www.w3.org/2000/svg" xmlns:xlink="http://www.w3.org/1999/xlink" x="0px" y="0px"
	 width="28.719px" height="28.792px" viewBox="0 0 28.719 28.792" enable-background="new 0 0 28.719 28.792" xml:space="preserve">
<g id="Layer_2">
</g>
<g>
	<path fill="none" stroke="#000000" stroke-width="1.5" stroke-miterlimit="10" d="M0.86,27.896c9.037,0,18.021,0,27,0
		c0-9.029,0-18.012,0-27c-9.02,0-18.002,0-27,0C0.86,9.912,0.86,18.883,0.86,27.896z"/>
	<path fill="none" stroke="#000000" stroke-width="1.5" stroke-miterlimit="10" d="M0.86,27.896c0-9.013,0-17.983,0-27
		c8.998,0,17.98,0,27,0c0,8.987,0,17.971,0,27C18.879,27.896,9.899,27.896,0.86,27.896z"/>
</g>
<g>
	
		<line fill="none" stroke="#000000" stroke-width="1.5" stroke-linecap="round" stroke-miterlimit="10" x1="6.971" y1="7.174" x2="14.351" y2="17.131"/>
	
		<line fill="none" stroke="#000000" stroke-width="1.5" stroke-linecap="round" stroke-miterlimit="10" x1="6.971" y1="7.174" x2="6.971" y2="21.618"/>
	
		<line fill="none" stroke="#000000" stroke-width="1.5" stroke-linecap="round" stroke-miterlimit="10" x1="21.747" y1="7.174" x2="14.351" y2="17.131"/>
	
		<line fill="none" stroke="#000000" stroke-width="1.5" stroke-linecap="round" stroke-miterlimit="10" x1="21.747" y1="7.174" x2="21.747" y2="21.618"/>
</g>
</svg>
