<?xml version="1.0" encoding="utf-8"?>
<!-- Generator: Adobe Illustrator 17.0.0, SVG Export Plug-In . SVG Version: 6.00 Build 0)  -->
<!DOCTYPE svg PUBLIC "-//W3C//DTD SVG 1.1//EN" "http://www.w3.org/Graphics/SVG/1.1/DTD/svg11.dtd">
<svg version="1.1" id="Layer_1" xmlns="http://www.w3.org/2000/svg" xmlns:xlink="http://www.w3.org/1999/xlink" x="0px" y="0px"
	 width="28.719px" height="28.792px" viewBox="0 0 28.719 28.792" enable-background="new 0 0 28.719 28.792" xml:space="preserve">
<g id="Layer_2">
</g>
<g>
	<path fill="none" stroke="#000000" stroke-width="1.0275" stroke-miterlimit="10" d="M12.666,4.317
		c0.363-0.364,0.725-0.727,1.088-1.092c0.046-0.047,0.094-0.089,0.14-0.132"/>
	<path fill="none" stroke="#000000" stroke-width="1.0275" stroke-miterlimit="10" d="M13.895,3.093
		c0.013-0.012,0.027-0.025,0.039-0.036c0-0.001,0-0.002,0-0.002"/>
	<line fill="none" stroke="#000000" stroke-width="1.0275" stroke-miterlimit="10" x1="12.666" y1="4.317" x2="13.895" y2="3.093"/>
	<line fill="none" stroke="#000000" stroke-width="1.0275" stroke-miterlimit="10" x1="13.933" y1="3.054" x2="13.895" y2="3.093"/>
	<line fill="none" stroke="#000000" stroke-width="1.0275" stroke-miterlimit="10" x1="14.54" y1="2.452" x2="14.746" y2="2.247"/>
	<line fill="none" stroke="#000000" stroke-width="1.0275" stroke-miterlimit="10" x1="13.933" y1="3.054" x2="14.54" y2="2.452"/>
	
		<rect x="4.047" y="6.806" transform="matrix(-0.7031 0.7111 -0.7111 -0.7031 33.8661 15.5912)" fill="none" stroke="#000000" stroke-width="1.5413" stroke-miterlimit="10" width="19.262" height="16.118"/>
	<ellipse cx="17.19" cy="10.498" rx="1.421" ry="1.44"/>
	<line fill="none" stroke="#000000" stroke-width="1.5413" stroke-miterlimit="10" x1="16.359" y1="10.221" x2="6.634" y2="6.426"/>
	<path d="M26.997,13.794c0.132,0.212,0.262,0.412,0.385,0.617c0.338,0.56,0.663,1.126,0.916,1.731
		c0.084,0.204,0.167,0.408,0.191,0.627c0.045,0.4-0.069,0.759-0.324,1.065c-0.405,0.485-0.931,0.67-1.543,0.513
		c-0.62-0.159-0.987-0.582-1.114-1.211c-0.055-0.268,0.007-0.524,0.099-0.775c0.176-0.485,0.417-0.939,0.669-1.388
		C26.501,14.577,26.739,14.188,26.997,13.794z"/>
</g>
</svg>
