<?xml version="1.0" encoding="utf-8"?>
<!-- Generator: Adobe Illustrator 17.0.0, SVG Export Plug-In . SVG Version: 6.00 Build 0)  -->
<!DOCTYPE svg PUBLIC "-//W3C//DTD SVG 1.1//EN" "http://www.w3.org/Graphics/SVG/1.1/DTD/svg11.dtd">
<svg version="1.1" id="Layer_1" xmlns="http://www.w3.org/2000/svg" xmlns:xlink="http://www.w3.org/1999/xlink" x="0px" y="0px"
	 width="28.719px" height="28.792px" viewBox="0 0 28.719 28.792" enable-background="new 0 0 28.719 28.792" xml:space="preserve">
<g id="Layer_2">
</g>
<g>
	<path fill="none" stroke="#000000" stroke-width="1.5" stroke-miterlimit="10" d="M20.099,3.043
		c-0.009,0.009-0.018,0.018-0.027,0.027c-3.605,3.609-7.21,7.222-10.816,10.83c-1.506,1.506-3.023,3.001-4.519,4.515
		c-0.229,0.232-0.458,0.499-0.598,0.792c1.778,1.771,3.559,3.542,5.315,5.336c0.313-0.165,0.609-0.378,0.852-0.621
		C15.45,18.803,20.577,13.67,25.707,8.537L20.099,3.043z"/>
	<path fill="none" stroke="#000000" stroke-width="1.5" stroke-miterlimit="10" d="M20.112,3.036
		c0.513-0.526,1.024-1.054,1.558-1.559c0.879-0.832,1.987-0.821,2.853-0.002C25.427,2.33,26.31,3.208,27.2,4.076
		c0.414,0.403,0.665,0.877,0.658,1.466c0.018,0.536-0.175,0.996-0.541,1.374c-0.547,0.566-1.104,1.124-1.656,1.686"/>
	<path fill="none" stroke="#000000" stroke-width="1.5" stroke-linejoin="round" stroke-miterlimit="10" d="M3.995,19.447
		c-1.027,2.771-2.054,5.555-3.136,8.489c0.958-0.375,1.749-0.687,2.542-0.997c2.018-0.788,4.038-1.565,6.052-2.364"/>
</g>
</svg>
