<?xml version="1.0" encoding="utf-8"?>
<!-- Generator: Adobe Illustrator 17.0.0, SVG Export Plug-In . SVG Version: 6.00 Build 0)  -->
<!DOCTYPE svg PUBLIC "-//W3C//DTD SVG 1.1//EN" "http://www.w3.org/Graphics/SVG/1.1/DTD/svg11.dtd">
<svg version="1.1" xmlns="http://www.w3.org/2000/svg" xmlns:xlink="http://www.w3.org/1999/xlink" x="0px" y="0px"
	 width="28.719px" height="12.5px" viewBox="0.513 8.837 28.719 12.5" enable-background="new 0.513 8.837 28.719 12.5"
	 xml:space="preserve">
<g id="Layer_2">
</g>
<g id="Layer_1">
	<g>
		<path fill="none" stroke="#000000" stroke-width="1.5" stroke-miterlimit="10" d="M30.867,35.484c9.037,0,18.021,0,27,0
			c0-9.029,0-18.012,0-27c-9.02,0-18.002,0-27,0C30.867,17.5,30.867,26.471,30.867,35.484z"/>
		<path fill="none" stroke="#000000" stroke-width="1.5" stroke-miterlimit="10" d="M30.867,35.484c0-9.013,0-17.983,0-27
			c8.998,0,17.98,0,27,0c0,8.987,0,17.971,0,27C48.887,35.484,39.907,35.484,30.867,35.484z"/>
	</g>
	<g>
		
			<line fill="none" stroke="#000000" stroke-width="1.5" stroke-linecap="round" stroke-miterlimit="10" x1="36.979" y1="14.762" x2="44.359" y2="24.719"/>
		
			<line fill="none" stroke="#000000" stroke-width="1.5" stroke-linecap="round" stroke-miterlimit="10" x1="36.979" y1="14.762" x2="36.979" y2="29.207"/>
		
			<line fill="none" stroke="#000000" stroke-width="1.5" stroke-linecap="round" stroke-miterlimit="10" x1="51.755" y1="14.762" x2="44.359" y2="24.719"/>
		
			<line fill="none" stroke="#000000" stroke-width="1.5" stroke-linecap="round" stroke-miterlimit="10" x1="51.755" y1="14.762" x2="51.755" y2="29.207"/>
	</g>
	<polygon points="22.366,13.512 29.249,11.235 22.366,8.96 	"/>
	<path fill="none" stroke="#000000" stroke-width="1.5" stroke-miterlimit="10" d="M15.189,20.564L6.51,20.473
		c-2.647,0-4.793-2.095-4.793-4.679s2.146-4.679,4.793-4.679l16.738,0.109"/>
</g>
</svg>
