<?xml version="1.0" encoding="utf-8"?>
<!-- Generator: Adobe Illustrator 17.0.0, SVG Export Plug-In . SVG Version: 6.00 Build 0)  -->
<!DOCTYPE svg PUBLIC "-//W3C//DTD SVG 1.1//EN" "http://www.w3.org/Graphics/SVG/1.1/DTD/svg11.dtd">
<svg version="1.1" xmlns="http://www.w3.org/2000/svg" xmlns:xlink="http://www.w3.org/1999/xlink" x="0px" y="0px" width="31px"
	 height="28.792px" viewBox="-0.613 0.233 31 28.792" enable-background="new -0.613 0.233 31 28.792" xml:space="preserve">
<g id="Layer_2">
</g>
<g id="Layer_1">
	<line fill="none" x1="41.016" y1="6.091" x2="33.626" y2="13.491"/>
	<g>
		<path fill="none" stroke="#000000" stroke-width="1.5" stroke-miterlimit="10" d="M1.221,28.129c9.038,0,18.021,0,27,0
			c0-9.029,0-18.013,0-27c-9.02,0-18.002,0-27,0C1.221,10.145,1.221,19.116,1.221,28.129z"/>
		<path fill="none" stroke="#000000" stroke-width="1.5" stroke-miterlimit="10" d="M1.221,28.129c0-9.013,0-17.983,0-27
			c8.998,0,17.98,0,27,0c0,8.987,0,17.972,0,27C19.241,28.129,10.259,28.129,1.221,28.129z"/>
	</g>
	<line fill="none" stroke="#000000" stroke-width="1.5" stroke-miterlimit="10" x1="0.555" y1="14.902" x2="28.603" y2="14.902"/>
	
		<line fill="none" stroke="#000000" stroke-width="1.6069" stroke-miterlimit="10" x1="14.708" y1="21.356" x2="14.708" y2="8.445"/>
	<polygon points="17.963,8.818 14.925,3.459 11.451,8.827 	"/>
	<polygon points="17.963,20.865 14.925,26.223 11.451,20.858 	"/>
</g>
</svg>
