<?xml version="1.0" encoding="utf-8"?>
<!-- Generator: Adobe Illustrator 17.0.0, SVG Export Plug-In . SVG Version: 6.00 Build 0)  -->
<!DOCTYPE svg PUBLIC "-//W3C//DTD SVG 1.1//EN" "http://www.w3.org/Graphics/SVG/1.1/DTD/svg11.dtd">
<svg version="1.1" id="Layer_1" xmlns="http://www.w3.org/2000/svg" xmlns:xlink="http://www.w3.org/1999/xlink" x="0px" y="0px"
	 width="28px" height="28px" viewBox="0 0 28 28" enable-background="new 0 0 28 28" xml:space="preserve">
<g>
	<path fill="none" stroke="#000000" stroke-width="1.5" stroke-miterlimit="10" d="M1.036,27.021c8.702,0,17.354,0,26,0
		c0-8.695,0-17.345,0-26c-8.686,0-17.335,0-26,0C1.036,9.703,1.036,18.342,1.036,27.021z"/>
	<path fill="none" stroke="#000000" stroke-width="1.5" stroke-miterlimit="10" d="M1.036,27.021c0-8.679,0-17.317,0-26
		c8.665,0,17.314,0,26,0c0,8.654,0,17.305,0,26C18.389,27.021,9.74,27.021,1.036,27.021z"/>
</g>
<g>
	<path fill="none" stroke="#000000" stroke-miterlimit="10" d="M45.039,29.101c-2.984,0-5.967,0-8.951,0c0-6.444,0-12.887,0-19.331
		c0.087-0.009,0.174-0.025,0.261-0.025c2.806-0.001,5.613-0.001,8.419,0c0.085,0,0.17,0.01,0.279,0.017c0,0.123,0,0.226,0,0.33
		c0,6.239,0,12.479,0,18.718C45.047,28.908,45.042,29.004,45.039,29.101z"/>
	<path fill="none" stroke="#000000" stroke-miterlimit="10" d="M57.273,9.77c0,6.444,0,12.887,0,19.331c-2.984,0-5.967,0-8.951,0
		c-0.003-0.044-0.008-0.088-0.008-0.132c0-6.328-0.001-12.655,0-18.983c0-0.076,0.011-0.152,0.017-0.232
		c0.095-0.004,0.165-0.01,0.236-0.01c2.824,0,5.648-0.001,8.472,0.001C57.117,9.745,57.195,9.762,57.273,9.77z"/>
	<path fill="none" stroke="#000000" stroke-miterlimit="10" d="M57.273,9.77c-0.078-0.009-0.156-0.025-0.234-0.025
		c-2.824-0.001-5.648-0.001-8.472-0.001c-0.07,0-0.14,0.006-0.236,0.01c-0.006,0.08-0.017,0.156-0.017,0.232
		c-0.001,6.328-0.001,12.655,0,18.983c0,0.044,0.005,0.088,0.008,0.132c-1.095,0-2.189,0-3.284,0
		c0.003-0.097,0.008-0.194,0.009-0.291c0-6.239,0-12.479,0-18.718c0-0.104,0-0.208,0-0.33c-0.109-0.007-0.194-0.017-0.279-0.017
		c-2.806-0.001-5.613-0.001-8.419,0c-0.087,0-0.174,0.016-0.261,0.025c0-1.095,0-2.189,0-3.284c7.062,0,14.123,0,21.185,0
		C57.273,7.581,57.273,8.676,57.273,9.77z"/>
	<path fill="none" stroke="#000000" stroke-miterlimit="10" d="M57.273,6.487c-7.062,0-14.123,0-21.185,0c0-0.071,0-0.141,0-0.212
		c7.062,0,14.123,0,21.185,0C57.273,6.345,57.273,6.416,57.273,6.487z"/>
</g>
</svg>
