<?xml version="1.0" encoding="utf-8"?>
<!-- Generator: Adobe Illustrator 17.0.0, SVG Export Plug-In . SVG Version: 6.00 Build 0)  -->
<!DOCTYPE svg PUBLIC "-//W3C//DTD SVG 1.1//EN" "http://www.w3.org/Graphics/SVG/1.1/DTD/svg11.dtd">
<svg version="1.1" id="Layer_1" xmlns="http://www.w3.org/2000/svg" xmlns:xlink="http://www.w3.org/1999/xlink" x="0px" y="0px"
	 width="31px" height="30.511px" viewBox="-0.613 -0.605 31 30.511" enable-background="new -0.613 -0.605 31 30.511"
	 xml:space="preserve">
<path fill="none" stroke="#000000" stroke-width="1.5" stroke-miterlimit="10" d="M25.822,0"/>
<path fill="none" stroke="#FFFFFF" stroke-miterlimit="10" d="M1.467,5.506"/>
<line fill="none" stroke="#000000" stroke-width="1.5" stroke-miterlimit="10" x1="29.555" y1="4.888" x2="25.112" y2="0.404"/>
<line fill="none" stroke="#000000" stroke-width="1.5" stroke-miterlimit="10" x1="10.333" y1="22.44" x2="7.791" y2="19.982"/>
<line fill="none" stroke="#000000" stroke-width="1.5" stroke-miterlimit="10" x1="25.721" y1="0" x2="8.584" y2="17.463"/>
<line fill="none" stroke="#000000" stroke-width="1.5" stroke-linecap="round" stroke-miterlimit="10" x1="8.639" y1="17.379" x2="5.907" y2="24.04"/>
<line fill="none" stroke="#000000" stroke-width="1.5" stroke-linecap="round" stroke-miterlimit="10" x1="5.907" y1="24.04" x2="12.417" y2="21.416"/>
<line fill="none" stroke="#000000" stroke-width="1.5" stroke-miterlimit="10" x1="12.336" y1="21.468" x2="29.775" y2="4.016"/>
<path fill="none" stroke="#FFFFFF" stroke-miterlimit="10" d="M7.39,23.809"/>
<path fill="none" stroke="#FFFFFF" stroke-miterlimit="10" d="M5.956,22.375"/>
<line fill="none" x1="41.016" y1="6.091" x2="33.626" y2="13.491"/>
<path fill="none" stroke="#000000" stroke-width="1.5" stroke-miterlimit="10" d="M24.387,1.15h-19c-2.209,0-4,1.791-4,4v19
	c0,2.209,1.791,4,4,4h19c2.209,0,4-1.791,4-4V5.738"/>
</svg>
