<?xml version="1.0" encoding="utf-8"?>
<!-- Generator: Adobe Illustrator 17.0.0, SVG Export Plug-In . SVG Version: 6.00 Build 0)  -->
<!DOCTYPE svg PUBLIC "-//W3C//DTD SVG 1.1//EN" "http://www.w3.org/Graphics/SVG/1.1/DTD/svg11.dtd">
<svg version="1.1" id="Layer_1" xmlns="http://www.w3.org/2000/svg" xmlns:xlink="http://www.w3.org/1999/xlink" x="0px" y="0px"
	 width="28.719px" height="28.792px" viewBox="0 0 28.719 28.792" enable-background="new 0 0 28.719 28.792" xml:space="preserve">
<g id="Layer_2">
</g>
<g>
	<path fill="none" stroke="#000000" stroke-width="1.5" stroke-miterlimit="10" d="M25.538,6.173c0,1.168-0.882,2.116-1.969,2.116
		H5.149c-1.087,0-1.969-0.948-1.969-2.116l0,0c0-1.168,0.882-2.116,1.969-2.116H23.57C24.656,4.058,25.538,5.004,25.538,6.173
		L25.538,6.173z"/>
	<path fill="none" stroke="#000000" stroke-width="1.5" stroke-miterlimit="10" d="M19.231,2.477c0,0.873-0.379,1.581-0.848,1.581
		h-7.924c-0.468,0-0.848-0.708-0.848-1.581l0,0c0-0.873,0.379-1.581,0.848-1.581h7.925C18.851,0.896,19.231,1.603,19.231,2.477
		L19.231,2.477z"/>
	
		<line fill="none" stroke="#000000" stroke-width="1.5" stroke-linecap="round" stroke-miterlimit="10" x1="9.612" y1="13.409" x2="9.612" y2="23.524"/>
	
		<line fill="none" stroke="#000000" stroke-width="1.5" stroke-linecap="round" stroke-miterlimit="10" x1="14.234" y1="13.531" x2="14.234" y2="23.647"/>
	
		<line fill="none" stroke="#000000" stroke-width="1.5" stroke-linecap="round" stroke-miterlimit="10" x1="18.654" y1="13.409" x2="18.654" y2="23.524"/>
	<path fill="none" stroke="#000000" stroke-width="1.5" stroke-miterlimit="10" d="M4.872,7.796v18.242
		c0,1.025,1.341,1.858,2.996,1.858h13.106c1.655,0,2.996-0.831,2.996-1.858V7.796"/>
</g>
</svg>
