<?xml version="1.0" encoding="utf-8"?>
<!-- Generator: Adobe Illustrator 17.0.0, SVG Export Plug-In . SVG Version: 6.00 Build 0)  -->
<!DOCTYPE svg PUBLIC "-//W3C//DTD SVG 1.1//EN" "http://www.w3.org/Graphics/SVG/1.1/DTD/svg11.dtd">
<svg version="1.1" id="Layer_1" xmlns="http://www.w3.org/2000/svg" xmlns:xlink="http://www.w3.org/1999/xlink" x="0px" y="0px"
	 width="31.333px" height="15.25px" viewBox="5.458 8.844 31.333 15.25" enable-background="new 5.458 8.844 31.333 15.25"
	 xml:space="preserve">
<image overflow="visible" enable-background="new    " width="125" height="126" xlink:href="8B564134.png"  transform="matrix(1.096 0 0 1.0714 -102.1667 -248.3958)">
</image>
<image overflow="visible" enable-background="new    " width="125" height="126" xlink:href="8B564137.png"  transform="matrix(1.096 0 0 1.0714 -245.5 -145.5625)">
</image>
<path fill="none" stroke="#000000" stroke-width="7" stroke-miterlimit="10" d="M-249.5-102.313c0,11.736-9.736,21.25-21.746,21.25
	h-25.008c-12.01,0-21.746-9.514-21.746-21.25l0,0c0-11.736,9.736-21.25,21.746-21.25h25.008
	C-259.236-123.563-249.5-114.049-249.5-102.313L-249.5-102.313z"/>
<path fill="none" d="M-212-142.813c0,9.803-7.947,17.75-17.75,17.75l0,0c-9.803,0-17.75-7.947-17.75-17.75v-1.5
	c0-9.803,7.947-17.75,17.75-17.75l0,0c9.803,0,17.75,7.947,17.75,17.75V-142.813z"/>
<path fill="none" d="M-209-85.813c0,15.05-12.2,27.25-27.25,27.25h-49c-15.05,0-27.25-12.2-27.25-27.25l0,0
	c0-15.05,12.2-27.25,27.25-27.25h49C-221.2-113.063-209-100.862-209-85.813L-209-85.813z"/>
<path fill="none" d="M127.5-2.318c12.172-0.127,22-9.587,22-21.244s-9.828-21.117-22-21.244"/>
<line fill="none" x1="127.5" y1="-44.807" x2="127.5" y2="-2.318"/>
<polyline fill="none" points="127.5,-2.318 127.5,15.938 180,15.938 180,-81.563 127.5,-81.563 127.5,-44.807 "/>
<path fill="none" d="M44.862-18.563c-0.461,4.6-2.066,8.863-4.526,12.5"/>
<path fill="none" d="M44.862-18.563C44.953-19.467,45-20.384,45-21.313c0-15.05-12.2-27.25-27.25-27.25H-5.167"/>
<path fill="none" d="M44.748-6.069c-0.084,0.001-0.168,0.006-0.253,0.006h-4.159"/>
<path fill="none" d="M-5.167-48.563c2.722-1.126,5.715-1.75,8.858-1.75h40.803c0.085,0,0.168,0.005,0.253,0.006"/>
<polyline fill="none" points="45.862,-17.563 24.5,-17.563 24.5,-5.063 "/>
<polygon fill="none" stroke="#000000" stroke-width="10" stroke-miterlimit="10" points="134.253,-21.491 146.5,-42.705 
	158.747,-21.491 "/>
<ellipse cx="-174.667" cy="103.104" rx="48.667" ry="51.333"/>
<polygon points="13.348,8.844 5.977,11.34 13.348,13.837 "/>
<path fill="none" stroke="#000000" stroke-width="2" stroke-miterlimit="10" d="M12.403,11.328l17.923-0.12
	c2.834,0,5.132,2.298,5.132,5.132s-2.298,5.132-5.132,5.132l-9.293,0.1"/>
</svg>
