<?xml version="1.0" standalone="no"?>
<!DOCTYPE svg PUBLIC "-//W3C//DTD SVG 20010904//EN"
 "http://www.w3.org/TR/2001/REC-SVG-20010904/DTD/svg10.dtd">
<svg version="1.0" xmlns="http://www.w3.org/2000/svg"
 width="922.000000pt" height="922.000000pt" viewBox="0 0 922.000000 922.000000"
 preserveAspectRatio="xMidYMid meet">

<g transform="translate(0.000000,922.000000) scale(0.100000,-0.100000)"
fill="#000000" stroke="none">
<path d="M2995 9204 c-16 -2 -73 -9 -125 -15 -498 -56 -1038 -265 -1459 -563
-784 -557 -1281 -1381 -1386 -2299 -20 -179 -20 -529 0 -702 69 -585 267
-1109 613 -1616 273 -401 636 -719 1095 -959 654 -342 1416 -475 2056 -360
312 57 583 157 1117 414 121 58 227 106 236 106 37 0 653 -604 1950 -1914 571
-577 1068 -1073 1104 -1102 78 -64 175 -122 259 -155 50 -19 79 -23 175 -23
132 -1 184 15 291 86 205 137 315 342 288 535 -5 37 -14 84 -21 103 -21 68
-87 187 -148 270 -65 87 -1053 1081 -2020 2032 -472 464 -855 856 -956 980
-41 52 -46 62 -40 93 4 19 72 162 151 319 165 325 216 440 273 617 127 391
153 826 81 1349 -55 395 -160 731 -332 1065 -299 577 -793 1065 -1389 1373
-377 194 -804 320 -1227 362 -94 9 -515 12 -586 4z m511 -685 c491 -48 1009
-254 1363 -542 107 -87 302 -284 396 -402 415 -517 623 -1126 602 -1760 -23
-662 -274 -1244 -736 -1706 -338 -338 -727 -556 -1212 -679 -918 -233 -1821
20 -2475 691 -391 403 -633 890 -721 1449 -14 90 -18 175 -18 395 0 301 9 385
62 605 226 938 979 1643 2028 1898 66 16 161 35 210 41 50 6 101 13 115 15 57
8 284 5 386 -5z"/>
<path d="M1775 6004 c-9 -146 -4 -208 19 -233 42 -46 14 -45 1526 -42 784 2
1428 6 1431 9 4 4 12 77 18 162 6 85 14 172 17 193 l6 37 -1505 0 -1505 0 -7
-126z"/>
</g>
</svg>
