<?xml version="1.0" standalone="no"?>
<!DOCTYPE svg PUBLIC "-//W3C//DTD SVG 20010904//EN"
 "http://www.w3.org/TR/2001/REC-SVG-20010904/DTD/svg10.dtd">
<svg version="1.0" xmlns="http://www.w3.org/2000/svg"
 width="924.000000pt" height="926.000000pt" viewBox="0 0 924.000000 926.000000"
 preserveAspectRatio="xMidYMid meet">

<g transform="translate(0.000000,926.000000) scale(0.100000,-0.100000)"
fill="#000000" stroke="none">
<path d="M3075 9250 c-718 -64 -1365 -343 -1926 -828 -509 -440 -890 -1052
-1048 -1682 -74 -294 -95 -461 -95 -770 0 -340 39 -604 134 -919 161 -529 496
-1101 856 -1457 772 -765 2018 -1101 3089 -833 311 78 515 157 774 302 147 82
278 146 308 149 32 4 529 -479 1221 -1187 862 -882 889 -910 1357 -1369 432
-423 542 -519 664 -580 113 -57 166 -71 271 -70 148 0 264 52 384 170 114 113
170 262 170 454 -1 201 -20 236 -286 520 -152 162 -1119 1120 -1843 1827 -582
567 -935 932 -1042 1077 l-43 59 33 41 c61 73 172 250 229 362 141 277 237
598 285 951 24 180 24 654 0 838 -145 1089 -682 1926 -1589 2477 -398 241
-826 393 -1283 453 -144 19 -481 27 -620 15z m630 -734 c567 -84 1054 -335
1452 -749 618 -644 876 -1570 676 -2422 -127 -541 -455 -1051 -908 -1411 -399
-316 -846 -500 -1361 -560 -251 -29 -595 -12 -839 42 -629 139 -1190 528
-1563 1087 -593 885 -610 1990 -44 2852 194 296 428 532 720 726 387 256 845
413 1327 453 97 8 441 -4 540 -18z"/>
<path d="M3318 7440 c-102 -3 -189 -7 -191 -10 -3 -3 -8 -292 -12 -642 l-8
-638 -647 0 -647 0 -6 -122 c-4 -66 -7 -156 -7 -198 l0 -77 263 -6 c144 -4
422 -7 617 -7 195 0 372 -3 392 -6 l38 -7 2 -631 3 -631 188 -14 c103 -7 191
-10 195 -7 4 4 9 295 10 645 l4 638 376 6 c206 4 496 7 644 7 l268 0 0 63 c0
34 3 126 7 205 l6 142 -651 0 -652 0 -2 648 -3 647 -187 -5z"/>
</g>
</svg>
