<?xml version="1.0" encoding="utf-8"?>
<!-- Generator: Adobe Illustrator 24.3.0, SVG Export Plug-In . SVG Version: 6.00 Build 0)  -->
<svg version="1.1" id="Layer_1" xmlns="http://www.w3.org/2000/svg" xmlns:xlink="http://www.w3.org/1999/xlink" x="0px" y="0px"
	 viewBox="-1.853 -1.853 36.853 36.853" enable-background="new -1.853 -1.853 36.853 36.853" xml:space="preserve">
<g>
	<path fill="none" stroke="#000000" stroke-miterlimit="10" d="M20.765-10.147c10.887,0,21.708,0,32.525,0
		c0-10.721,0-21.385,0-32.057c-10.865,0-21.686,0-32.525,0C20.765-31.498,20.765-20.848,20.765-10.147z"/>
	<path fill="none" stroke="#000000" stroke-miterlimit="10" d="M20.765-10.147c0-10.701,0-21.351,0-32.057
		c10.839,0,21.66,0,32.525,0c0,10.671,0,21.336,0,32.057C42.473-10.147,31.652-10.147,20.765-10.147z"/>
</g>
<circle fill="none" stroke="#000000" stroke-width="2" stroke-miterlimit="10" cx="11.097" cy="11.031" r="11.316"/>
<line fill="none" stroke="#000000" stroke-width="2" stroke-linecap="round" stroke-miterlimit="10" x1="33.873" y1="33.894" x2="18.744" y2="19.37"/>
<line fill="none" stroke="#000000" stroke-width="2" stroke-miterlimit="10" x1="11.097" y1="17.761" x2="11.097" y2="4.301"/>
<line fill="none" stroke="#000000" stroke-width="2" stroke-miterlimit="10" x1="17.827" y1="11.031" x2="4.367" y2="11.031"/>
<g>
	<path fill="none" stroke="#808080" stroke-width="2" stroke-miterlimit="10" d="M88.418,19.18c0,1.1-0.9,2-2,2h-33.6
		c-1.1,0-2-0.9-2-2v-21.7c0-1.1,0.9-2,2-2h33.6c1.1,0,2,0.9,2,2V19.18z"/>
	<path fill="none" stroke="#808080" stroke-width="2" stroke-miterlimit="10" d="M66.118-9.02h-9.6c-1.2,0-2.2,1-2.2,2.2v2.3"/>
	<line fill="none" stroke="#808080" stroke-width="2" stroke-miterlimit="10" x1="65.618" y1="-9.32" x2="70.418" y2="-4.52"/>
</g>
<path fill="none" stroke="#F00200" stroke-width="0.25" stroke-miterlimit="10" d="M25.135,39.954"/>
<g>
	<path fill="none" stroke="#808080" stroke-width="2" stroke-miterlimit="10" d="M-19.465,32.082c0,1.1-0.9,2-2,2h-33.6
		c-1.1,0-2-0.9-2-2v-21.7c0-1.1,0.9-2,2-2h33.6c1.1,0,2,0.9,2,2V32.082z"/>
	<path fill="none" stroke="#808080" stroke-width="2" stroke-miterlimit="10" d="M-41.765,3.882h-9.6c-1.2,0-2.2,1-2.2,2.2v2.3"/>
	<line fill="none" stroke="#808080" stroke-width="2" stroke-miterlimit="10" x1="-42.265" y1="3.582" x2="-37.465" y2="8.382"/>
</g>
</svg>
