<?xml version="1.0" encoding="utf-8"?>
<!-- Generator: Adobe Illustrator 24.3.0, SVG Export Plug-In . SVG Version: 6.00 Build 0)  -->
<svg version="1.1" xmlns="http://www.w3.org/2000/svg" xmlns:xlink="http://www.w3.org/1999/xlink" x="0px" y="0px"
	 viewBox="0 0 32 41" style="enable-background:new 0 0 32 41;" xml:space="preserve">
<style type="text/css">
	.st0{fill:#728C99;}
	.st1{opacity:0.3;fill:#7F31FF;}
	.st2{fill:none;stroke:#FFFFFF;stroke-width:2.0629;stroke-miterlimit:10;}
	.st3{fill:none;stroke:#FFFFFF;stroke-width:3.0943;stroke-linecap:round;stroke-miterlimit:10;}
	.st4{fill:none;stroke:#FFFFFF;stroke-width:3.0943;stroke-linecap:round;stroke-linejoin:round;stroke-miterlimit:10;}
	.st5{fill:#FBFEFC;}
	.st6{fill:none;stroke:#A855F7;stroke-miterlimit:10;}
</style>
<g id="Layer_14">
</g>
<g id="Layer_5">
	<g id="Layer_15">
	</g>
</g>
<g id="Layer_10">
</g>
<g id="Layer_8">
</g>
<g id="Layer_7">
	
		<image style="display:none;overflow:visible;" width="1350" height="901" xlink:href="D2275AA7.jpg"  transform="matrix(1.003 0 0 1.003 -2810.5117 -489.6696)">
	</image>
</g>
<g id="Layer_4">
</g>
<g id="Layer_3">
	<rect x="-2548" y="-1846" class="st0" width="789" height="490"/>
	<rect x="-1703" y="-1857" class="st0" width="789" height="490"/>
	<rect x="-860" y="-1867" class="st0" width="789" height="494"/>
</g>
<g id="Layer_2">
	<rect x="-2516" y="-1833" class="st1" width="715" height="455"/>
	<rect x="-2484.2" y="-1783" style="fill:none;" width="243.4" height="43.3"/>
	
		<text transform="matrix(1 0 0 1 -2484.2385 -1758.0754)" style="fill:#FFFFFF; font-family:'MyriadPro-Regular'; font-size:35.0685px;">User:</text>
	<rect x="-2484.2" y="-1679.8" style="fill:none;" width="243.4" height="43.3"/>
	
		<text transform="matrix(1 0 0 1 -2484.2385 -1654.925)" style="fill:#FFFFFF; font-family:'MyriadPro-Regular'; font-size:35.0685px;">Password</text>
	<rect x="-1910.7" y="-1412.7" style="fill:none;" width="110" height="21.7"/>
	
		<text transform="matrix(1 0 0 1 -1910.7073 -1395.1174)" style="fill:#FFFFFF; font-family:'MyriadPro-Regular'; font-size:24.7542px;">register</text>
	<rect x="-2501" y="-1412.2" style="fill:none;" width="184.6" height="26.8"/>
	
		<text transform="matrix(1 0 0 1 -2501.012 -1394.592)" style="fill:#FFFCE2; font-family:'MyriadPro-Regular'; font-size:24.7542px;">forgot password</text>
	<line class="st2" x1="-2231.8" y1="-1647.5" x2="-1797.6" y2="-1646.1"/>
	<line class="st2" x1="-2231.8" y1="-1750.6" x2="-1797.6" y2="-1749.2"/>
	<rect x="-2227.7" y="-1415.3" style="fill:none;" width="190.8" height="26.8"/>
	
		<text transform="matrix(1 0 0 1 -2227.6799 -1397.6917)" style="fill:#FFFCE2; font-family:'MyriadPro-Regular'; font-size:24.7542px;">change password</text>
	<g>
		<g>
			<image style="overflow:visible;" width="117" height="158" xlink:href="D2275AA4.png"  transform="matrix(1 0 0 1 -2216 -1620)">
			</image>
		</g>
		<g>
			<image style="overflow:visible;" width="117" height="158" xlink:href="D2275AAA.png"  transform="matrix(1 0 0 1 -2216 -1620)">
			</image>
		</g>
		<g>
			<line class="st3" x1="-2167.7" y1="-1540.6" x2="-2168.2" y2="-1539.8"/>
			<g>
				<line class="st3" x1="-2163.7" y1="-1506.9" x2="-2163.7" y2="-1513"/>
				<g>
					<line class="st3" x1="-2155.3" y1="-1500.9" x2="-2150.9" y2="-1506.1"/>
					<path class="st3" d="M-2155.1-1498.6"/>
					<path class="st3" d="M-2156.9-1538.6"/>
					<line class="st3" x1="-2168.2" y1="-1539.5" x2="-2161.2" y2="-1539.5"/>
					<line class="st3" x1="-2160.9" y1="-1535" x2="-2161.2" y2="-1539.5"/>
					<line class="st3" x1="-2163" y1="-1533.3" x2="-2160.9" y2="-1535"/>
					<line class="st3" x1="-2162.7" y1="-1528.3" x2="-2163" y2="-1533.3"/>
					<line class="st3" x1="-2160.9" y1="-1526.1" x2="-2162.7" y2="-1528.3"/>
					<line class="st3" x1="-2164.7" y1="-1521.6" x2="-2160.9" y2="-1526.1"/>
					<line class="st3" x1="-2161.2" y1="-1515.5" x2="-2164.7" y2="-1521.6"/>
					<line class="st3" x1="-2161.2" y1="-1515.5" x2="-2163.7" y2="-1513"/>
					<line class="st3" x1="-2155.3" y1="-1500.8" x2="-2163.7" y2="-1506.9"/>
					<line class="st3" x1="-2155.3" y1="-1500.8" x2="-2150.8" y2="-1506"/>
					<line class="st3" x1="-2150.8" y1="-1506" x2="-2151" y2="-1538.6"/>
					<line class="st3" x1="-2151" y1="-1538.6" x2="-2145.9" y2="-1538.8"/>
				</g>
			</g>
			<line class="st3" x1="-2167.8" y1="-1540.5" x2="-2166.4" y2="-1543.6"/>
			<line class="st4" x1="-2148.4" y1="-1543.4" x2="-2145.9" y2="-1538.8"/>
			<path class="st3" d="M-2148.5-1543.7c1.9-1,3.7-2.2,5.2-3.8c7.8-7.9,7.7-20.6-0.2-28.4c-7.9-7.8-20.6-7.7-28.4,0.2
				c-7.8,7.9-7.7,20.6,0.2,28.4c1.6,1.6,3.4,2.8,5.2,3.7"/>
			<path class="st3" d="M-2153.7-1568.4c-1.9-1.9-5-1.9-6.9,0.1c-1.9,1.9-1.9,5,0.1,6.9c1.9,1.9,5,1.9,6.9-0.1
				C-2151.7-1563.4-2151.7-1566.5-2153.7-1568.4z"/>
			<path class="st3" d="M-2146.3-1541.2"/>
			<path class="st3" d="M-2167.8-1540.5"/>
		</g>
	</g>
	<rect x="-2200.4" y="-1783.7" style="fill:none;" width="371.3" height="30.3"/>
	
		<text transform="matrix(1 0 0 1 -2200.3499 -1763.157)" style="fill:#FFFFFF; font-family:'MyriadPro-Regular'; font-size:28.8799px;">example@mail.com</text>
	<rect x="-2493.7" y="-1947.4" style="fill:none;" width="668.4" height="103.4"/>
	<text transform="matrix(1 0 0 1 -2493.6521 -1926.9167)"><tspan x="0" y="0" style="fill:#FFFFFF; font-family:'MyriadPro-Regular'; font-size:28.8799px;">El estudiante entrará de forma ordinaria colocando el </tspan><tspan x="0" y="34.7" style="fill:#FFFFFF; font-family:'MyriadPro-Regular'; font-size:28.8799px;">user (correo) y password de su preferencia</tspan><tspan x="0" y="69.3" style="fill:#FFFFFF; font-family:'MyriadPro-Regular'; font-size:28.8799px;">Esto lo lleva directo a su perfil de estudiante</tspan></text>
	<rect x="-1662.6" y="-2247" style="fill:none;" width="713.7" height="351.3"/>
	<text transform="matrix(1 0 0 1 -1662.6055 -2226.4956)"><tspan x="0" y="0" style="fill:#FFFFFF; font-family:'MyriadPro-Regular'; font-size:28.8799px;">El profersor podrá tambien entrar colocando el user </tspan><tspan x="0" y="34.7" style="fill:#FFFFFF; font-family:'MyriadPro-Regular'; font-size:28.8799px;">(correo) y password de su preferencia, solo que en su caso, </tspan><tspan x="0" y="69.3" style="fill:#FFFFFF; font-family:'MyriadPro-Regular'; font-size:28.8799px;">deberá agregar a su usuario un guión y la letra R  </tspan><tspan x="0" y="104" style="fill:#FFFFFF; font-family:'MyriadPro-Regular'; font-size:28.8799px;">(mayúscula o minúscula)s eguida de un número cualquiera, </tspan><tspan x="0" y="138.6" style="fill:#FFFFFF; font-family:'MyriadPro-Regular'; font-size:28.8799px;">previamente asignado por el administrador, y que repre</tspan><tspan x="670" y="138.6" style="fill:#FFFFFF; font-family:'MyriadPro-Regular'; font-size:28.8799px;">-</tspan><tspan x="0" y="173.3" style="fill:#FFFFFF; font-family:'MyriadPro-Regular'; font-size:28.8799px;">senta la sala donde ese profesor tendrá acceso para en</tspan><tspan x="653.5" y="173.3" style="fill:#FFFFFF; font-family:'MyriadPro-Regular'; font-size:28.8799px;">-</tspan><tspan x="0" y="207.9" style="fill:#FFFFFF; font-family:'MyriadPro-Regular'; font-size:28.8799px;">señar. De esta forma el sistema podrá  distinguir entre pro</tspan><tspan x="693" y="207.9" style="fill:#FFFFFF; font-family:'MyriadPro-Regular'; font-size:28.8799px;">-</tspan><tspan x="0" y="242.6" style="fill:#FFFFFF; font-family:'MyriadPro-Regular'; font-size:28.8799px;">fesor y estudiante y “dirigirlo a su sala correspondiente” es</tspan><tspan x="697.8" y="242.6" style="fill:#FFFFFF; font-family:'MyriadPro-Regular'; font-size:28.8799px;">-</tspan><tspan x="0" y="277.2" style="fill:#FFFFFF; font-family:'MyriadPro-Regular'; font-size:28.8799px;">tudiante y dirigir a este a un panel de profesores, no a un </tspan><tspan x="0" y="311.9" style="fill:#FFFFFF; font-family:'MyriadPro-Regular'; font-size:28.8799px;">perfil de estudiante. </tspan></text>
	<rect x="-832.5" y="-2232.4" style="fill:none;" width="713.7" height="351.3"/>
	<text transform="matrix(1 0 0 1 -832.5309 -2211.896)"><tspan x="0" y="0" style="fill:#FFFFFF; font-family:'MyriadPro-Regular'; font-size:28.8799px;">Para que el sitema distinga entre el administrador y los </tspan><tspan x="0" y="34.7" style="fill:#FFFFFF; font-family:'MyriadPro-Regular'; font-size:28.8799px;">demás perfiles (profesores y estudiantes) y solo una pers</tspan><tspan x="691.5" y="34.7" style="fill:#FFFFFF; font-family:'MyriadPro-Regular'; font-size:28.8799px;">-</tspan><tspan x="0" y="69.3" style="fill:#FFFFFF; font-family:'MyriadPro-Regular'; font-size:28.8799px;">na pueda entrar a este, se puede validar un usuario genera</tspan><tspan x="701" y="69.3" style="fill:#FFFFFF; font-family:'MyriadPro-Regular'; font-size:28.8799px;">-</tspan><tspan x="0" y="104" style="fill:#FFFFFF; font-family:'MyriadPro-Regular'; font-size:28.8799px;">do mediante un correo único imposibilitando la entrada de </tspan><tspan x="0" y="138.6" style="fill:#FFFFFF; font-family:'MyriadPro-Regular'; font-size:28.8799px;">cualquier otro usuario</tspan></text>
	<rect x="-2219.8" y="-1672.3" style="fill:none;" width="371.3" height="30.3"/>
	
		<text transform="matrix(1 0 0 1 -2219.8464 -1651.8394)" style="fill:#FFFFFF; font-family:'MyriadPro-Regular'; font-size:28.8799px;">xxxxxxxxxxxxxxxxxxxxx</text>
	<rect x="-1345.8" y="-1700.2" style="fill:none;" width="371.3" height="30.3"/>
	
		<text transform="matrix(1 0 0 1 -1345.8463 -1679.668)" style="fill:#FFFFFF; font-family:'MyriadPro-Regular'; font-size:28.8799px;">xxxxxxxxxxxxxxxxxxxxx</text>
	<rect x="-1671" y="-1844" class="st1" width="715" height="455"/>
	<rect x="-1639.2" y="-1794" style="fill:none;" width="243.4" height="43.3"/>
	
		<text transform="matrix(1 0 0 1 -1639.2385 -1769.0754)" style="fill:#FFFFFF; font-family:'MyriadPro-Regular'; font-size:35.0685px;">User:</text>
	<rect x="-1639.2" y="-1690.8" style="fill:none;" width="243.4" height="43.3"/>
	
		<text transform="matrix(1 0 0 1 -1639.2385 -1665.925)" style="fill:#FFFFFF; font-family:'MyriadPro-Regular'; font-size:35.0685px;">Password</text>
	<rect x="-1065.7" y="-1423.7" style="fill:none;" width="110" height="21.7"/>
	
		<text transform="matrix(1 0 0 1 -1065.7073 -1406.1174)" style="fill:#FFFFFF; font-family:'MyriadPro-Regular'; font-size:24.7542px;">register</text>
	<rect x="-1656" y="-1423.2" style="fill:none;" width="184.6" height="26.8"/>
	
		<text transform="matrix(1 0 0 1 -1656.012 -1405.592)" style="fill:#FFFCE2; font-family:'MyriadPro-Regular'; font-size:24.7542px;">forgot password</text>
	<line class="st2" x1="-1386.8" y1="-1658.5" x2="-952.6" y2="-1657.1"/>
	<line class="st2" x1="-1386.8" y1="-1761.6" x2="-952.6" y2="-1760.2"/>
	<rect x="-1382.7" y="-1426.3" style="fill:none;" width="190.8" height="26.8"/>
	
		<text transform="matrix(1 0 0 1 -1382.6799 -1408.6917)" style="fill:#FFFCE2; font-family:'MyriadPro-Regular'; font-size:24.7542px;">change password</text>
	<g>
		<g>
			<image style="overflow:visible;" width="117" height="158" xlink:href="D2275AA8.png"  transform="matrix(1 0 0 1 -1371 -1631)">
			</image>
		</g>
		<g>
			<image style="overflow:visible;" width="117" height="158" xlink:href="D2275AA9.png"  transform="matrix(1 0 0 1 -1371 -1631)">
			</image>
		</g>
		<g>
			<line class="st3" x1="-1322.7" y1="-1551.6" x2="-1323.2" y2="-1550.8"/>
			<g>
				<line class="st3" x1="-1318.7" y1="-1517.9" x2="-1318.7" y2="-1524"/>
				<g>
					<line class="st3" x1="-1310.3" y1="-1511.9" x2="-1305.9" y2="-1517.1"/>
					<path class="st3" d="M-1310.1-1509.6"/>
					<path class="st3" d="M-1311.9-1549.6"/>
					<line class="st3" x1="-1323.2" y1="-1550.5" x2="-1316.2" y2="-1550.5"/>
					<line class="st3" x1="-1315.9" y1="-1546" x2="-1316.2" y2="-1550.5"/>
					<line class="st3" x1="-1318" y1="-1544.3" x2="-1315.9" y2="-1546"/>
					<line class="st3" x1="-1317.7" y1="-1539.3" x2="-1318" y2="-1544.3"/>
					<line class="st3" x1="-1315.9" y1="-1537.1" x2="-1317.7" y2="-1539.3"/>
					<line class="st3" x1="-1319.7" y1="-1532.6" x2="-1315.9" y2="-1537.1"/>
					<line class="st3" x1="-1316.2" y1="-1526.5" x2="-1319.7" y2="-1532.6"/>
					<line class="st3" x1="-1316.2" y1="-1526.5" x2="-1318.7" y2="-1524"/>
					<line class="st3" x1="-1310.3" y1="-1511.8" x2="-1318.7" y2="-1517.9"/>
					<line class="st3" x1="-1310.3" y1="-1511.8" x2="-1305.8" y2="-1517"/>
					<line class="st3" x1="-1305.8" y1="-1517" x2="-1306" y2="-1549.6"/>
					<line class="st3" x1="-1306" y1="-1549.6" x2="-1300.9" y2="-1549.8"/>
				</g>
			</g>
			<line class="st3" x1="-1322.8" y1="-1551.5" x2="-1321.4" y2="-1554.6"/>
			<line class="st4" x1="-1303.4" y1="-1554.4" x2="-1300.9" y2="-1549.8"/>
			<path class="st3" d="M-1303.5-1554.7c1.9-1,3.7-2.2,5.2-3.8c7.8-7.9,7.7-20.6-0.2-28.4c-7.9-7.8-20.6-7.7-28.4,0.2
				c-7.8,7.9-7.7,20.6,0.2,28.4c1.6,1.6,3.4,2.8,5.2,3.7"/>
			<path class="st3" d="M-1308.7-1579.4c-1.9-1.9-5-1.9-6.9,0.1s-1.9,5,0.1,6.9c1.9,1.9,5,1.9,6.9-0.1
				C-1306.7-1574.4-1306.7-1577.5-1308.7-1579.4z"/>
			<path class="st3" d="M-1301.3-1552.2"/>
			<path class="st3" d="M-1322.8-1551.5"/>
		</g>
	</g>
	<rect x="-1355.4" y="-1794.7" style="fill:none;" width="371.3" height="30.3"/>
	
		<text transform="matrix(1 0 0 1 -1355.3479 -1774.1609)" style="fill:#FFFFFF; font-family:'MyriadPro-Regular'; font-size:28.8799px;">example@mail.com-R3</text>
	<rect x="-828" y="-1850" class="st1" width="715" height="455"/>
	<rect x="-796.2" y="-1800" style="fill:none;" width="243.4" height="43.3"/>
	
		<text transform="matrix(1 0 0 1 -796.2385 -1775.0754)" style="fill:#FFFFFF; font-family:'MyriadPro-Regular'; font-size:35.0685px;">User:</text>
	<rect x="-796.2" y="-1696.8" style="fill:none;" width="243.4" height="43.3"/>
	
		<text transform="matrix(1 0 0 1 -796.2385 -1671.925)" style="fill:#FFFFFF; font-family:'MyriadPro-Regular'; font-size:35.0685px;">Password</text>
	<rect x="-222.7" y="-1429.7" style="fill:none;" width="110" height="21.7"/>
	
		<text transform="matrix(1 0 0 1 -222.7073 -1412.1174)" style="fill:#FFFFFF; font-family:'MyriadPro-Regular'; font-size:24.7542px;">register</text>
	<rect x="-813" y="-1429.2" style="fill:none;" width="184.6" height="26.8"/>
	
		<text transform="matrix(1 0 0 1 -813.012 -1411.592)" style="fill:#FFFCE2; font-family:'MyriadPro-Regular'; font-size:24.7542px;">forgot password</text>
	<line class="st2" x1="-543.8" y1="-1664.5" x2="-109.6" y2="-1663.1"/>
	<line class="st2" x1="-543.8" y1="-1767.6" x2="-109.6" y2="-1766.2"/>
	<rect x="-539.7" y="-1432.3" style="fill:none;" width="190.8" height="26.8"/>
	
		<text transform="matrix(1 0 0 1 -539.6799 -1414.6917)" style="fill:#FFFCE2; font-family:'MyriadPro-Regular'; font-size:24.7542px;">change password</text>
	<g>
		<g>
			<image style="overflow:visible;" width="117" height="158" xlink:href="D2275AB6.png"  transform="matrix(1 0 0 1 -528 -1637)">
			</image>
		</g>
		<g>
			<image style="overflow:visible;" width="117" height="158" xlink:href="D2275AB7.png"  transform="matrix(1 0 0 1 -528 -1637)">
			</image>
		</g>
		<g>
			<line class="st3" x1="-479.7" y1="-1557.6" x2="-480.2" y2="-1556.8"/>
			<g>
				<line class="st3" x1="-475.7" y1="-1523.9" x2="-475.7" y2="-1530"/>
				<g>
					<line class="st3" x1="-467.3" y1="-1517.9" x2="-462.9" y2="-1523.1"/>
					<path class="st3" d="M-467.1-1515.6"/>
					<path class="st3" d="M-468.9-1555.6"/>
					<line class="st3" x1="-480.2" y1="-1556.5" x2="-473.2" y2="-1556.5"/>
					<line class="st3" x1="-472.9" y1="-1552" x2="-473.2" y2="-1556.5"/>
					<line class="st3" x1="-475" y1="-1550.3" x2="-472.9" y2="-1552"/>
					<line class="st3" x1="-474.7" y1="-1545.3" x2="-475" y2="-1550.3"/>
					<line class="st3" x1="-472.9" y1="-1543.1" x2="-474.7" y2="-1545.3"/>
					<line class="st3" x1="-476.7" y1="-1538.6" x2="-472.9" y2="-1543.1"/>
					<line class="st3" x1="-473.2" y1="-1532.5" x2="-476.7" y2="-1538.6"/>
					<line class="st3" x1="-473.2" y1="-1532.5" x2="-475.7" y2="-1530"/>
					<line class="st3" x1="-467.3" y1="-1517.8" x2="-475.7" y2="-1523.9"/>
					<line class="st3" x1="-467.3" y1="-1517.8" x2="-462.8" y2="-1523"/>
					<line class="st3" x1="-462.8" y1="-1523" x2="-463" y2="-1555.6"/>
					<line class="st3" x1="-463" y1="-1555.6" x2="-457.9" y2="-1555.8"/>
				</g>
			</g>
			<line class="st3" x1="-479.8" y1="-1557.5" x2="-478.4" y2="-1560.6"/>
			<line class="st4" x1="-460.4" y1="-1560.4" x2="-457.9" y2="-1555.8"/>
			<path class="st3" d="M-460.5-1560.7c1.9-1,3.7-2.2,5.2-3.8c7.8-7.9,7.7-20.6-0.2-28.4c-7.9-7.8-20.6-7.7-28.4,0.2
				c-7.8,7.9-7.7,20.6,0.2,28.4c1.6,1.6,3.4,2.8,5.2,3.7"/>
			<path class="st3" d="M-465.7-1585.4c-1.9-1.9-5-1.9-6.9,0.1c-1.9,1.9-1.9,5,0.1,6.9s5,1.9,6.9-0.1
				C-463.7-1580.4-463.7-1583.5-465.7-1585.4z"/>
			<path class="st3" d="M-458.3-1558.2"/>
			<path class="st3" d="M-479.8-1557.5"/>
		</g>
	</g>
	<rect x="-512.4" y="-1800.7" style="fill:none;" width="284.6" height="30.3"/>
	
		<text transform="matrix(1 0 0 1 -512.3499 -1780.157)" style="fill:#FFFFFF; font-family:'MyriadPro-Regular'; font-size:28.8799px;">example@mail.com</text>
</g>
<g id="Layer_6">
</g>
<g id="Layer_9">
</g>
<g id="Layer_11">
</g>
<g id="Layer_12">
</g>
<g id="Layer_1">
	
		<image style="display:none;overflow:visible;" width="1350" height="901" xlink:href="D2275AA6.jpg"  transform="matrix(1.003 0 0 1.003 -2807.5117 -495.3348)">
	</image>
	
		<image style="overflow:visible;" width="1350" height="901" xlink:href="D2275AB9.jpg"  transform="matrix(1.003 0 0 1.003 -1415.5116 -493.3348)">
	</image>
	
		<image style="overflow:visible;" width="1350" height="901" xlink:href="5FB01979.jpg"  transform="matrix(1.003 0 0 1.003 -1415.5116 -492.3348)">
	</image>
	
		<image style="overflow:visible;" width="1350" height="901" xlink:href="5FB0197B.jpg"  transform="matrix(1.0096 0 0 1.003 -1413.5 -488.6696)">
	</image>
	<rect x="-1416" y="-496" class="st5" width="1363" height="909"/>
</g>
<g id="Layer_13">
</g>
<g id="Layer_16">
</g>
<g id="Layer_17">
	<g>
		<g>
			<path class="st6" d="M17,23.2c4.1,0.3,7.7,2.2,10.2,5.1"/>
			<path class="st6" d="M30.3,41c0.2-1,0.4-2.1,0.4-3.2c0-3.6-1.3-6.9-3.5-9.5"/>
			<path class="st6" d="M14.8,23.2C7.3,23.8,1.4,30.1,1.4,37.8c0,1.1,0.1,2.2,0.4,3.2"/>
			<ellipse class="st6" cx="15.5" cy="12.3" rx="10.7" ry="10.8"/>
		</g>
	</g>
</g>
</svg>
